<svg xmlns="http://www.w3.org/2000/svg" id="Layer_1" height="512" viewBox="0 0 512 512" width="512" data-name="Layer 1"><g fill-rule="evenodd"><path d="m255.748.442c141.384 0 256 114.587 256 255.963s-114.615 256.035-256 256.035-255.999-114.658-255.999-256.04 114.623-255.958 255.999-255.958z" fill="#f44336"></path><path d="m325.369 224.885a8.882 8.882 0 1 0 -8.889-8.885 8.894 8.894 0 0 0 8.889 8.883zm0 7.5a16.383 16.383 0 1 1 16.381-16.385 16.4 16.4 0 0 1 -16.381 16.384zm42.486 17.222a8.883 8.883 0 1 0 8.883 8.883 8.891 8.891 0 0 0 -8.883-8.883zm0-7.5a16.383 16.383 0 1 1 -16.381 16.382 16.4 16.4 0 0 1 16.381-16.382zm-51.036 30.643a3.746 3.746 0 0 1 -.463-5.282l54.761-65.262a3.75 3.75 0 1 1 5.745 4.821l-54.756 65.26a3.752 3.752 0 0 1 -5.287.463zm-212.077 76.071a60.119 60.119 0 1 0 60.12-60.12 60.187 60.187 0 0 0 -60.12 60.12zm38.387-64.037v-173.628a7.224 7.224 0 0 1 7.215-7.215h119.562v52.707h-102.515a3.751 3.751 0 0 0 0 7.5h102.653a14.725 14.725 0 0 0 14.572 12.745h31.472a67.635 67.635 0 0 0 26.773 127.891v58.556a7.222 7.222 0 0 1 -7.218 7.212h-106.743a67.635 67.635 0 0 0 -85.77-85.768zm134.278-122.6a7.222 7.222 0 0 0 7.209 7.215h53.945l-61.154-60.099v52.879zm69.2 14.925a60.142 60.142 0 1 1 -60.143 60.143 60.212 60.212 0 0 1 60.143-60.143zm-249.366 171.712a67.717 67.717 0 0 1 38.39-60.969v-176.7a14.731 14.731 0 0 1 14.713-14.712h123.143a3.747 3.747 0 0 1 2.626 1.076l73.124 71.853a4.028 4.028 0 0 1 .274.3 67.64 67.64 0 0 1 .851 135.115v58.556a14.729 14.729 0 0 1 -14.719 14.713h-109.812a67.617 67.617 0 0 1 -128.59-29.232zm63.872-4.344a12.263 12.263 0 0 1 0-23.355zm7.5 8.688a12.261 12.261 0 0 1 0 23.355zm-7.5 23.355v-24.31a19.768 19.768 0 0 1 0-38.819v-4.574a3.749 3.749 0 1 1 7.5 0v4.574a19.8 19.8 0 0 1 16.023 19.409 3.751 3.751 0 1 1 -7.5 0 12.289 12.289 0 0 0 -8.524-11.68v24.313a19.767 19.767 0 0 1 0 38.819v4.574a3.749 3.749 0 1 1 -7.5 0v-4.574a19.8 19.8 0 0 1 -16.021-19.414 3.751 3.751 0 0 1 7.5 0 12.277 12.277 0 0 0 8.52 11.68zm73.654-62.42a3.753 3.753 0 0 0 3.749 3.751h80.077a3.751 3.751 0 0 0 0-7.5h-80.077a3.752 3.752 0 0 0 -3.749 3.75zm43.777-38.425a3.754 3.754 0 0 0 -3.752-3.749h-74.155a3.751 3.751 0 1 0 0 7.5h74.155a3.756 3.756 0 0 0 3.752-3.752zm-13.369-34.675a3.75 3.75 0 0 0 0-7.5h-97.784a3.75 3.75 0 0 0 0 7.5zm-101.533-42.178a3.752 3.752 0 0 0 3.749 3.752h107.4a3.751 3.751 0 1 0 0-7.5h-107.4a3.751 3.751 0 0 0 -3.749 3.748z" fill="#fff"></path></g></svg>