<svg xmlns="http://www.w3.org/2000/svg" id="Layer_1" height="512" viewBox="0 0 512 512" width="512" data-name="Layer 1"><path d="m256 .029c141.383 0 256 114.587 256 255.963s-114.619 256.035-256 256.035-256-114.659-256-256.035 114.621-255.963 256-255.963zm21.21 195.136-34.316-19.826h-.009v39.652l34.32-19.826zm3.751-6.519-34.316-19.781a7.5 7.5 0 0 0 -11.257 6.474v39.652a7.409 7.409 0 0 0 3.751 6.475 7.378 7.378 0 0 0 7.51 0l34.316-19.781a7.537 7.537 0 0 0 0-13.039zm-24.961 52.021a45.5 45.5 0 1 0 -45.524-45.5 45.56 45.56 0 0 0 45.524 45.5zm53.025-45.5a53.026 53.026 0 1 0 -53.025 53 53.059 53.059 0 0 0 53.025-53zm-71.043 72.472 4.072 19.157h27.891l4.077-19.157a3.774 3.774 0 0 1 2.6-2.813 72.856 72.856 0 0 0 14.052-5.805 3.7 3.7 0 0 1 3.836.134l16.432 10.673 19.715-19.737-10.664-16.433a3.752 3.752 0 0 1 -.147-3.84 71.448 71.448 0 0 0 5.827-14.021 3.664 3.664 0 0 1 2.814-2.59l19.156-4.108v-27.866l-19.152-4.107a3.68 3.68 0 0 1 -2.818-2.59 72.119 72.119 0 0 0 -5.827-14.066 3.68 3.68 0 0 1 .152-3.8l10.659-16.432-19.715-19.737-16.442 10.676a3.694 3.694 0 0 1 -3.831.134 73.632 73.632 0 0 0 -14.052-5.805 3.761 3.761 0 0 1 -2.6-2.813l-4.081-19.156h-27.886l-4.072 19.156a3.779 3.779 0 0 1 -2.608 2.813 72.78 72.78 0 0 0 -14.048 5.805 3.693 3.693 0 0 1 -3.831-.134l-16.437-10.672-19.714 19.737 10.66 16.432a3.659 3.659 0 0 1 .143 3.8 73.591 73.591 0 0 0 -5.823 14.066 3.666 3.666 0 0 1 -2.813 2.59l-19.156 4.107v27.863l19.156 4.108a3.663 3.663 0 0 1 2.813 2.59 72.047 72.047 0 0 0 5.823 14.021 3.747 3.747 0 0 1 -.143 3.84l-10.66 16.43 19.714 19.737 16.428-10.673a3.709 3.709 0 0 1 3.84-.134 73.188 73.188 0 0 0 14.048 5.805 3.78 3.78 0 0 1 2.608 2.813zm147.318 140.879v-37.818h-37.823v37.821zm-110.391 0v-37.818h-37.824v37.821zm-110.4 0v-37.818h-37.82v37.821zm-18.909-90.646a3.734 3.734 0 0 0 -3.751 3.751v41.577h-18.91a3.762 3.762 0 0 0 -3.752 3.751v45.323a3.762 3.762 0 0 0 3.752 3.751h45.322a3.759 3.759 0 0 0 3.751-3.751v-45.328a3.759 3.759 0 0 0 -3.751-3.751h-18.91v-37.821h102.898v37.826h-18.915a3.765 3.765 0 0 0 -3.751 3.751v45.323a3.765 3.765 0 0 0 3.751 3.751h45.323a3.759 3.759 0 0 0 3.751-3.751v-45.328a3.759 3.759 0 0 0 -3.751-3.751h-18.911v-37.821h102.9v37.826h-18.916a3.759 3.759 0 0 0 -3.751 3.751v45.323a3.759 3.759 0 0 0 3.751 3.751h45.323a3.765 3.765 0 0 0 3.751-3.751v-45.328a3.765 3.765 0 0 0 -3.751-3.751h-18.91v-41.572a3.737 3.737 0 0 0 -3.751-3.751h-106.646v-23.572h13.227a3.761 3.761 0 0 0 3.666-2.947l4.26-20a75.777 75.777 0 0 0 11.368-4.688l17.133 11.109a3.785 3.785 0 0 0 4.693-.492l24.007-24.023a3.733 3.733 0 0 0 .491-4.688l-11.119-17.148a79.859 79.859 0 0 0 4.72-11.341l19.978-4.282a3.72 3.72 0 0 0 2.969-3.662v-33.938a3.719 3.719 0 0 0 -2.969-3.661l-19.97-4.29a80.887 80.887 0 0 0 -4.711-11.342l11.111-17.147a3.734 3.734 0 0 0 -.491-4.689l-24.009-24.023a3.785 3.785 0 0 0 -4.693-.491l-17.138 11.118a76.343 76.343 0 0 0 -11.368-4.688l-4.26-20a3.716 3.716 0 0 0 -3.666-2.947h-33.95a3.728 3.728 0 0 0 -3.671 2.947l-4.255 19.96a80.6 80.6 0 0 0 -11.369 4.733l-17.14-11.123a3.785 3.785 0 0 0 -4.693.491l-24 24.023a3.728 3.728 0 0 0 -.5 4.689l11.119 17.147a79.967 79.967 0 0 0 -4.716 11.342l-19.977 4.287a3.719 3.719 0 0 0 -2.97 3.661v33.936a3.72 3.72 0 0 0 2.97 3.662l19.977 4.287a79.955 79.955 0 0 0 4.716 11.341l-11.116 17.148a3.727 3.727 0 0 0 .5 4.688l24 24.023a3.785 3.785 0 0 0 4.693.492l17.138-11.119a75.788 75.788 0 0 0 11.369 4.688l4.255 20a3.773 3.773 0 0 0 3.671 2.947h13.226v23.577z" fill="#f44336" fill-rule="evenodd"></path></svg>